<?xml version="1.0" encoding="utf-8"?>
<!-- Generator: Adobe Illustrator 19.0.0, SVG Export Plug-In . SVG Version: 6.00 Build 0)  -->
<svg version="1.1" id="Layer_1" xmlns="http://www.w3.org/2000/svg" xmlns:xlink="http://www.w3.org/1999/xlink" x="0px" y="0px"
	 width="150.1px" height="185px" viewBox="-1305.5 829.7 150.1 185" style="enable-background:new -1305.5 829.7 150.1 185;"
	 xml:space="preserve">
<style type="text/css">
	.st0{fill:#91D8F7;stroke:#000000;stroke-width:3;stroke-linecap:round;stroke-miterlimit:10;}
	.st1{fill:#1C87A8;}
	.st2{fill:#FFFFFF;stroke:#000000;stroke-width:3;stroke-linecap:round;stroke-miterlimit:10;}
	.st3{fill:none;stroke:#000000;stroke-width:3;stroke-linecap:round;stroke-miterlimit:10;}
	.st4{fill:#FFFFFF;stroke:#030404;stroke-width:3;stroke-linecap:round;stroke-miterlimit:10;}
	.st5{fill:#91D8F7;stroke:#000000;stroke-width:3;stroke-miterlimit:10;}
	.st6{fill:#030404;}
</style>
<g id="XMLID_58_">
	<path id="XMLID_56_" class="st0" d="M-1162.6,1013.2h-112.2c-3.1,0-5.7-2.6-5.7-5.7V859.3c0-3.1,2.6-5.7,5.7-5.7h112.2
		c3.1,0,5.7,2.6,5.7,5.7v148.3C-1157,1010.7-1159.5,1013.2-1162.6,1013.2z"/>
	<g id="XMLID_68_">
		<path id="XMLID_124_" class="st1" d="M-1275.9,1002.8h95.4c6.8,0,12.5-5.7,12.5-12.5V857.8v-0.1c0-0.7-0.1-1.4-0.2-2.1
			c-0.9-0.2-1.9-0.4-2.9-0.4h-5.8v2.3v124c0,6.8-5.7,12.5-12.5,12.5h-86.7h-2.9v6.2c0,0.8,0.1,1.5,0.2,2.2
			C-1277.9,1002.6-1277,1002.8-1275.9,1002.8C-1276,1002.8-1276,1002.8-1275.9,1002.8z"/>
	</g>
	<path id="XMLID_4_" class="st2" d="M-1181.3,994.1h-112.2c-3.1,0-5.7-2.6-5.7-5.7V840c0-3.1,2.6-5.7,5.7-5.7h112.2
		c3.1,0,5.7,2.6,5.7,5.7v148.3C-1175.7,991.5-1178.2,994.1-1181.3,994.1z"/>
	<g id="XMLID_9_">
		<line id="XMLID_52_" class="st3" x1="-1280.4" y1="928.1" x2="-1194.3" y2="928.1"/>
		<line id="XMLID_3_" class="st3" x1="-1280.4" y1="947.7" x2="-1194.3" y2="947.7"/>
		<line id="XMLID_5_" class="st3" x1="-1280.4" y1="967.3" x2="-1232.4" y2="967.3"/>
		<g id="XMLID_139_">
			<path id="XMLID_461_" class="st4" d="M-1208.4,909.8h-54.2c-1.6,0-2.8-1.3-2.8-2.8v-43.7c0-1.6,1.3-2.8,2.8-2.8h54.3
				c1.6,0,2.8,1.3,2.8,2.8V907C-1205.5,908.6-1206.8,909.8-1208.4,909.8z"/>
			<path id="XMLID_306_" class="st5" d="M-1262.3,906.5l14.3-25.4c1.4-2.8,4.5-3,6.1-0.3l11.5,19.6c0.5,0.9,1.7,0.9,2.3,0.1l6.7-9
				c0.7-0.7,2.8-0.9,3.5,0.2l9.9,13.7c1.2,1-2.3,3.8-4,3.8h-45.3C-1260.1,909.3-1261.6,907.6-1262.3,906.5z"/>
			<circle id="XMLID_147_" class="st6" cx="-1216.5" cy="877" r="5"/>
		</g>
	</g>
</g>
</svg>
