<?xml version="1.0" encoding="utf-8"?>
<!-- Generator: Adobe Illustrator 19.0.0, SVG Export Plug-In . SVG Version: 6.00 Build 0)  -->
<svg version="1.1" id="Layer_1" xmlns="http://www.w3.org/2000/svg" xmlns:xlink="http://www.w3.org/1999/xlink" x="0px" y="0px"
	 width="258.2px" height="185px" viewBox="-1361 829.5 258.2 185" style="enable-background:new -1361 829.5 258.2 185;"
	 xml:space="preserve">
<style type="text/css">
	.st0{fill:none;stroke:#000000;stroke-width:3;stroke-linecap:round;stroke-miterlimit:10;}
	.st1{fill:#91D8F7;stroke:#000000;stroke-width:3;stroke-miterlimit:10;}
	.st2{opacity:0.15;enable-background:new    ;}
</style>
<g>
	<g>
		<line class="st0" x1="-1339" y1="920.6" x2="-1311.7" y2="920.6"/>
		<line class="st0" x1="-1349" y1="940.4" x2="-1301.7" y2="940.4"/>
		<line class="st0" x1="-1349" y1="960.3" x2="-1301.7" y2="960.3"/>
		<line class="st0" x1="-1349" y1="980.2" x2="-1301.7" y2="980.2"/>
		<path class="st1" d="M-1296.4,894.5h-58.6c-0.8,0-1.4-0.7-1.4-1.4v-58.6c0-0.7,0.6-1.4,1.4-1.4h58.6c0.7,0,1.4,0.7,1.4,1.4v58.6
			C-1295,893.8-1295.7,894.5-1296.4,894.5z"/>
	</g>
	<g>
		<line class="st0" x1="-1246.9" y1="920.6" x2="-1219.6" y2="920.6"/>
		<line class="st0" x1="-1256.9" y1="940.4" x2="-1209.6" y2="940.4"/>
		<line class="st0" x1="-1256.9" y1="960.3" x2="-1209.6" y2="960.3"/>
		<line class="st0" x1="-1256.9" y1="980.2" x2="-1209.6" y2="980.2"/>
		<path class="st1" d="M-1204.4,894.5h-58.6c-0.8,0-1.4-0.7-1.4-1.4v-58.6c0-0.7,0.6-1.4,1.4-1.4h58.6c0.7,0,1.4,0.7,1.4,1.4v58.6
			C-1203,893.8-1203.7,894.5-1204.4,894.5z"/>
	</g>
	<g>
		<line class="st0" x1="-1154.9" y1="920.6" x2="-1127.5" y2="920.6"/>
		<line class="st0" x1="-1164.8" y1="940.4" x2="-1117.5" y2="940.4"/>
		<line class="st0" x1="-1164.8" y1="960.3" x2="-1117.5" y2="960.3"/>
		<line class="st0" x1="-1164.8" y1="980.2" x2="-1117.5" y2="980.2"/>
		<path class="st1" d="M-1112.3,894.5h-58.6c-0.8,0-1.4-0.7-1.4-1.4v-58.6c0-0.7,0.6-1.4,1.4-1.4h58.6c0.8,0,1.4,0.7,1.4,1.4v58.6
			C-1110.9,893.8-1111.6,894.5-1112.3,894.5z"/>
	</g>
	<ellipse class="st2" cx="-1231.9" cy="1007.3" rx="129.1" ry="7.2"/>
</g>
</svg>
