<?xml version="1.0" encoding="utf-8"?>
<!-- Generator: Adobe Illustrator 19.0.0, SVG Export Plug-In . SVG Version: 6.00 Build 0)  -->
<svg version="1.1" id="Layer_2" xmlns="http://www.w3.org/2000/svg" xmlns:xlink="http://www.w3.org/1999/xlink" x="0px" y="0px"
	 width="233.5px" height="185px" viewBox="-1349.2 829.5 233.5 185" style="enable-background:new -1349.2 829.5 233.5 185;"
	 xml:space="preserve">
<style type="text/css">
	.st0{opacity:0.1;enable-background:new    ;}
	.st1{fill:none;stroke:#000000;stroke-width:3;stroke-linecap:round;stroke-miterlimit:10;}
	.st2{fill:#91D8F7;stroke:#000000;stroke-width:3;stroke-miterlimit:10;}
</style>
<g>
	<ellipse id="XMLID_1_" class="st0" cx="-1220.7" cy="1008.3" rx="41.1" ry="6.2"/>
	<g id="XMLID_1317_">
		<g id="XMLID_1132_">
			<ellipse id="XMLID_653_" class="st1" cx="-1220.9" cy="922.6" rx="36.2" ry="84.3"/>
			<path id="XMLID_1133_" class="st1" d="M-1294.6,964.9c-10-17.1,14.9-49.9,55.7-73.2c40.7-23.3,81.9-28.3,91.8-11.2
				c10,17.1-14.9,49.9-55.7,73.2S-1284.6,982-1294.6,964.9z"/>
			<path id="XMLID_1134_" class="st1" d="M-1147.1,964.8c-10,17.1-51.1,12.1-91.8-11.2s-65.7-56-55.7-73.2
				c10-17.1,51.1-12.1,91.8,11.2C-1162,914.9-1137.1,947.7-1147.1,964.8z"/>
		</g>
		<ellipse id="XMLID_1131_" class="st2" cx="-1220.9" cy="922.6" rx="15.8" ry="15.6"/>
		<ellipse id="XMLID_1316_" class="st2" cx="-1293.4" cy="965.2" rx="7" ry="6.9"/>
		<ellipse id="XMLID_1318_" class="st2" cx="-1220.9" cy="838.3" rx="7" ry="6.9"/>
		<ellipse id="XMLID_1319_" class="st2" cx="-1148" cy="964.7" rx="7" ry="6.9"/>
	</g>
	<line id="XMLID_1322_" class="st1" x1="-1117.3" y1="913.3" x2="-1128.5" y2="925.8"/>
	<line id="XMLID_1321_" class="st1" x1="-1347.7" y1="920.9" x2="-1320" y2="926.4"/>
	<line id="XMLID_1320_" class="st1" x1="-1337.2" y1="864.4" x2="-1324.9" y2="877.9"/>
</g>
</svg>
