<?xml version="1.0" encoding="utf-8"?>
<!-- Generator: Adobe Illustrator 19.0.0, SVG Export Plug-In . SVG Version: 6.00 Build 0)  -->
<svg version="1.1" id="Layer_1" xmlns="http://www.w3.org/2000/svg" xmlns:xlink="http://www.w3.org/1999/xlink" x="0px" y="0px"
	 width="131.3px" height="185px" viewBox="-1294.1 830 131.3 185" style="enable-background:new -1294.1 830 131.3 185;"
	 xml:space="preserve">
<style type="text/css">
	.st0{fill:#91D8F7;stroke:#000000;stroke-width:3;stroke-linecap:round;stroke-miterlimit:10;}
	.st1{fill:#1C87A8;}
	.st2{fill:#FFFFFF;stroke:#000000;stroke-width:3;stroke-linecap:round;stroke-miterlimit:10;}
	.st3{fill:none;stroke:#000000;stroke-width:3;stroke-linecap:round;stroke-miterlimit:10;}
	.st4{fill:#FFFFFF;stroke:#000000;stroke-width:3;stroke-linecap:round;stroke-linejoin:round;stroke-miterlimit:10;}
	.st5{fill:none;stroke:#000000;stroke-width:2;stroke-linecap:round;stroke-linejoin:round;stroke-miterlimit:10;}
	.st6{fill:none;stroke:#000000;stroke-width:3;stroke-linecap:round;stroke-linejoin:round;stroke-miterlimit:10;}
	.st7{fill:#91D8F7;}
	.st8{fill:#FFFFFF;}
	.st9{fill:none;stroke:#000000;stroke-width:2;stroke-linecap:round;stroke-miterlimit:10;}
</style>
<g>
	<g id="XMLID_58_">
		<path id="XMLID_56_" class="st0" d="M-1197.1,1013.5h-56.8c-3.1,0-5.7-2.6-5.7-5.7v-76.6c0-3.1,2.6-5.7,5.7-5.7h56.7
			c3.1,0,5.7,2.6,5.7,5.7v76.6C-1191.5,1010.9-1194,1013.5-1197.1,1013.5z"/>
		<g id="XMLID_68_">
			<path id="XMLID_124_" class="st1" d="M-1256.9,1007.9h52.5c3.8,0,6.9-3.1,6.9-6.9v-73c0,0,0,0,0-0.1c0-0.4,0-0.8-0.1-1.2
				c-0.5-0.1-1-0.2-1.6-0.2h-3.2v1.3v68.3c0,3.8-3.1,6.9-6.9,6.9h-47.8h-1.6v3.4c0,0.4,0,0.8,0.1,1.2
				C-1258,1007.8-1257.5,1007.9-1256.9,1007.9L-1256.9,1007.9z"/>
		</g>
		<path id="XMLID_4_" class="st2" d="M-1207.5,1003h-56.7c-3.1,0-5.7-2.6-5.7-5.7v-76.6c0-3.1,2.6-5.7,5.7-5.7h56.7
			c3.1,0,5.7,2.6,5.7,5.7v76.6C-1201.8,1000.4-1204.3,1003-1207.5,1003z"/>
		<g id="XMLID_9_">
			<line id="XMLID_50_" class="st3" x1="-1259.5" y1="932.1" x2="-1212.1" y2="932.1"/>
			<line id="XMLID_51_" class="st3" x1="-1259.5" y1="946.1" x2="-1212.1" y2="946.1"/>
			<line id="XMLID_52_" class="st3" x1="-1259.5" y1="960.1" x2="-1212.1" y2="960.1"/>
			<line id="XMLID_53_" class="st3" x1="-1259.5" y1="974.1" x2="-1212.1" y2="974.1"/>
			<line id="XMLID_54_" class="st3" x1="-1259.5" y1="988.1" x2="-1235.8" y2="988.1"/>
		</g>
	</g>
	<g id="XMLID_64_">
		<path id="XMLID_55_" class="st0" d="M-1248.3,896.2l-3.7,4.3c-1,1.2-2.8,1.3-4,0.3l-27.7-23.6c-1.2-1-1.3-2.8-0.3-4l3.7-4.3
			c1-1.2,2.8-1.3,4-0.3l27.7,23.6C-1247.4,893.2-1247.3,895-1248.3,896.2z"/>
		<polygon id="XMLID_66_" class="st4" points="-1255.1,901.5 -1243.3,904 -1247.8,892.9 		"/>
		<g id="XMLID_29_">
			<line id="XMLID_69_" class="st5" x1="-1283.5" y1="872.6" x2="-1253" y2="898.6"/>
			<line id="XMLID_70_" class="st5" x1="-1280.9" y1="869.5" x2="-1250.4" y2="895.4"/>
		</g>
		<line id="XMLID_71_" class="st6" x1="-1247.1" y1="903" x2="-1245" y2="900.5"/>
	</g>
	<g id="XMLID_123_">
		<g id="XMLID_138_">
			<path id="XMLID_40_" class="st7" d="M-1169.5,847.9c-2.6-1.6-7-4.3-9.6-6l-0.5-0.3c-2.6-1.6-6-0.7-7.5,2l-15.2,28.8
				c-1.5,2.8-1,6.1,1.1,7.4c2.1,1.3,5.5,3.4,7.5,4.7c2.1,1.3,5.3,0.3,7.1-2.2l19.1-26.3c1.8-2.5,1.2-5.9-1.5-7.6L-1169.5,847.9z"/>
			<path id="XMLID_39_" class="st3" d="M-1169.5,847.9c-2.6-1.6-7-4.3-9.6-6l-0.5-0.3c-2.6-1.6-6-0.7-7.5,2l-15.2,28.8
				c-1.5,2.8-1,6.1,1.1,7.4c2.1,1.3,5.5,3.4,7.5,4.7c2.1,1.3,5.3,0.3,7.1-2.2l19.1-26.3c1.8-2.5,1.2-5.9-1.5-7.6L-1169.5,847.9z"/>
		</g>
		<path id="XMLID_137_" class="st2" d="M-1168.5,859.7l-21.6-13.5c-1-0.6-1.3-2-0.7-3l0,0c0.6-1,2-1.3,3-0.7l21.6,13.4
			c1,0.6,1.3,2,0.7,3l0,0C-1166.2,860-1167.5,860.3-1168.5,859.7z"/>
		<g id="XMLID_126_">
			<path id="XMLID_45_" class="st8" d="M-1182.4,858.9L-1182.4,858.9l-1-0.7l0,0l-8.5-5.3l0,0l-9.1,16.7l0,0l7.5,4.7l0,0l1,0.6l0,0
				l7.5,4.7l0,0l11.1-15.5l0,0L-1182.4,858.9z"/>
			<path id="XMLID_44_" class="st3" d="M-1182.4,858.9L-1182.4,858.9l-1-0.7l0,0l-8.5-5.3l0,0l-9.1,16.7l0,0l7.5,4.7l0,0l1,0.6l0,0
				l7.5,4.7l0,0l11.1-15.5l0,0L-1182.4,858.9z"/>
		</g>
	</g>
	<g id="XMLID_100_">
		<g id="XMLID_82_">
			<path id="XMLID_49_" class="st7" d="M-1238.9,853.2c-2.3,4.4-5.8,4.9-7.6,1.1c-1.8-3.8,0-7.4,4.2-8
				C-1238.2,845.7-1236.7,848.9-1238.9,853.2z"/>
			<path id="XMLID_48_" class="st3" d="M-1238.9,853.2c-2.3,4.4-5.8,4.9-7.6,1.1c-1.8-3.8,0-7.4,4.2-8
				C-1238.2,845.7-1236.7,848.9-1238.9,853.2z"/>
		</g>
		<g id="XMLID_102_">
			<path id="XMLID_46_" class="st7" d="M-1271.2,836.2c-2.3,4.4-0.8,7.5,3.4,6.9c4.2-0.6,6.1-4.2,4.2-8
				C-1265.5,831.3-1268.8,831.8-1271.2,836.2z"/>
			<path id="XMLID_42_" class="st3" d="M-1271.2,836.2c-2.3,4.4-0.8,7.5,3.4,6.9c4.2-0.6,6.1-4.2,4.2-8
				C-1265.5,831.3-1268.8,831.8-1271.2,836.2z"/>
		</g>
		
			<ellipse id="XMLID_81_" transform="matrix(0.8849 0.4658 -0.4658 0.8849 249.0144 681.8447)" class="st2" cx="-1255.1" cy="844.8" rx="9.8" ry="6.3"/>
		<path id="XMLID_98_" class="st9" d="M-1259.9,843.8c1.4,3.4,5.2,5,8.6,3.6"/>
	</g>
	<line id="XMLID_90_" class="st3" x1="-1176.8" y1="909.9" x2="-1164.2" y2="903.6"/>
	<line id="XMLID_91_" class="st3" x1="-1228.1" y1="893.1" x2="-1234.1" y2="880"/>
	<line id="XMLID_30_" class="st3" x1="-1277.7" y1="897.6" x2="-1291.8" y2="894.8"/>
	<line id="XMLID_260_" class="st3" x1="-1229.7" y1="863.6" x2="-1220.5" y2="858.7"/>
</g>
</svg>
