<?xml version="1.0" encoding="utf-8"?>
<!-- Generator: Adobe Illustrator 19.0.0, SVG Export Plug-In . SVG Version: 6.00 Build 0)  -->
<svg version="1.1" id="Layer_2" xmlns="http://www.w3.org/2000/svg" xmlns:xlink="http://www.w3.org/1999/xlink" x="0px" y="0px"
	 width="204.7px" height="185px" viewBox="-1334.7 829.5 204.7 185" style="enable-background:new -1334.7 829.5 204.7 185;"
	 xml:space="preserve">
<style type="text/css">
	.st0{opacity:0.1;enable-background:new    ;}
	.st1{fill:#FFFFFF;stroke:#000000;stroke-width:3;stroke-miterlimit:10;}
	.st2{fill:none;stroke:#000000;stroke-width:3;stroke-linecap:round;stroke-miterlimit:10;}
	.st3{fill:#91D8F7;stroke:#000000;stroke-width:3;stroke-miterlimit:10;}
	.st4{display:none;}
	.st5{display:inline;fill:#91D8F7;stroke:#000000;stroke-width:2.5;stroke-linecap:round;stroke-miterlimit:10;}
	
		.st6{display:inline;fill:#FFFFFF;stroke:#000000;stroke-width:2.5;stroke-linecap:round;stroke-linejoin:round;stroke-miterlimit:10;}
	.st7{display:inline;fill:none;stroke:#000000;stroke-width:2;stroke-linecap:round;stroke-linejoin:round;stroke-miterlimit:10;}
	.st8{display:inline;fill:none;stroke:#000000;stroke-width:3;stroke-linecap:round;stroke-linejoin:round;stroke-miterlimit:10;}
	.st9{fill:none;stroke:#000000;stroke-width:3;stroke-miterlimit:10;}
	.st10{fill:#92D8F6;stroke:#000000;stroke-width:3;stroke-miterlimit:10;}
</style>
<g>
	<ellipse id="XMLID_2_" class="st0" cx="-1232.1" cy="1005.5" rx="74.7" ry="9"/>
	<g id="XMLID_653_">
		<path id="XMLID_1245_" class="st1" d="M-1183.6,1004.8h-97.6c-3.5,0-6.3-2.9-6.3-6.3V862.2c0-3.5,2.9-6.3,6.3-6.3h66
			c20.8,0,37.8,17,37.8,37.8v104.7C-1177.3,1002.1-1180.2,1004.8-1183.6,1004.8z"/>
		<g id="XMLID_3_">
			<line id="XMLID_1244_" class="st2" x1="-1210.2" y1="835.9" x2="-1153.9" y2="913.4"/>
			<path id="XMLID_1243_" class="st3" d="M-1173.6,878.3l-7.7,5.6c-1.4,1-3.3,0.7-4.5-0.7l-5.6-7.7c-1-1.4-0.7-3.3,0.7-4.5l7.7-5.6
				c1.4-1,3.3-0.7,4.5,0.7l5.6,7.7C-1171.8,875.3-1172.2,877.2-1173.6,878.3z"/>
			<circle id="XMLID_1242_" cx="-1210.2" cy="835.9" r="6.3"/>
			<circle id="XMLID_1241_" cx="-1153.9" cy="913.4" r="6.3"/>
		</g>
		<g id="XMLID_618_" class="st4">
			<path id="XMLID_1249_" class="st5" d="M-1244.5,966.4l-11.7-7.3c-1.4-0.9-1.9-2.9-1-4.3l36.7-58.2c0.9-1.4,2.9-1.9,4.3-1
				l11.7,7.3c1.4,0.9,1.9,2.9,1,4.3l-36.7,58.2C-1241.1,966.9-1243.1,967.3-1244.5,966.4z"/>
			<polygon id="XMLID_1248_" class="st6" points="-1257.3,954.7 -1258.9,976.2 -1240.2,965.4 			"/>
			<line id="XMLID_1247_" class="st7" x1="-1213.5" y1="897.1" x2="-1251.5" y2="957.6"/>
			<line id="XMLID_1246_" class="st7" x1="-1207.2" y1="901.1" x2="-1245.4" y2="961.5"/>
			<line id="XMLID_1240_" class="st8" x1="-1257.9" y1="969.1" x2="-1253" y2="972.2"/>
		</g>
	</g>
	<line id="XMLID_381_" class="st2" x1="-1157.7" y1="850.9" x2="-1150" y2="844"/>
	<line id="XMLID_225_" class="st2" x1="-1327.6" y1="844.4" x2="-1316.1" y2="854.9"/>
	<line id="XMLID_176_" class="st2" x1="-1151.3" y1="877.9" x2="-1131.6" y2="874.7"/>
	<line id="XMLID_177_" class="st2" x1="-1333.2" y1="897.9" x2="-1310.3" y2="894.9"/>
	<path id="XMLID_31_" class="st9" d="M-1239.7,951.5l39.4-40.5c1.4-1.4,2.1-3.3,2-5.3c-0.1-2-1-3.8-2.6-5.1
		c-3.1-2.7-8.3-2.3-11.1,0.6l-39.5,40.6"/>
	<path id="XMLID_29_" class="st10" d="M-1243.2,960.9c-5.9,6.2-15.5,8.6-22.7,9.5c2-5,1.6-9.2,1.2-12.7c-1-9.8,5.7-15.1,12-15.5
		c3.2-0.2,6.2,0.9,8.7,2.9C-1239.1,949.1-1238.7,956.2-1243.2,960.9z"/>
</g>
</svg>
