<svg xmlns="http://www.w3.org/2000/svg" xmlns:xlink="http://www.w3.org/1999/xlink" preserveAspectRatio="xMidYMid" width="67" height="67" viewBox="0 0 67 67">
  <defs>
    <style>
      .cls-1 {
        fill: #f1f0f0;
      }

      .cls-2 {
        fill: #5e5f5f;
        fill-rule: evenodd;
      }
    </style>
  </defs>
  <g>
    <circle cx="33.5" cy="33.5" r="33.5" class="cls-1"/>
    <path d="M40.275,29.230 L39.794,29.230 L39.794,26.711 C39.794,23.249 36.970,20.433 33.498,20.433 C30.027,20.433 27.203,23.249 27.203,26.711 L27.203,29.230 L26.722,29.230 C25.431,29.230 24.365,30.294 24.365,31.581 L24.365,42.215 C24.365,43.503 25.431,44.566 26.722,44.566 L40.275,44.566 C41.566,44.566 42.632,43.503 42.632,42.215 L42.632,31.581 C42.632,30.294 41.566,29.230 40.275,29.230 ZM34.376,36.928 L34.376,39.193 C34.376,39.525 34.104,39.796 33.771,39.796 L33.226,39.796 C32.893,39.796 32.621,39.525 32.621,39.193 L32.621,36.928 C32.167,36.627 31.894,36.143 31.894,35.600 C31.894,34.725 32.621,34.000 33.498,34.000 C34.376,34.000 35.103,34.725 35.103,35.600 C35.103,36.143 34.830,36.627 34.376,36.928 ZM37.216,29.230 L29.781,29.230 L29.781,26.711 C29.781,24.667 31.448,23.004 33.498,23.004 C35.548,23.004 37.216,24.667 37.216,26.711 L37.216,29.230 Z" class="cls-2"/>
  </g>
</svg>
